<svg version="1.1" xmlns="http://www.w3.org/2000/svg" viewBox="0 0 777.3907461375464 276.66666412353516" width="777.3907461375464" height="276.66666412353516">
  <!-- svg-source:excalidraw -->
  
  <defs>
    <style class="style-fonts">
      @font-face {
        font-family: "Virgil";
        src: url("https://excalidraw.com/Virgil.woff2");
      }
      @font-face {
        font-family: "Cascadia";
        src: url("https://excalidraw.com/Cascadia.woff2");
      }
    </style>
  </defs>
  <rect x="0" y="0" width="777.3907461375464" height="276.66666412353516" fill="#ffffff"></rect><g stroke-linecap="round" transform="translate(297.68470465098505 10) rotate(0 116.11111450195312 91.66667175292969)"><path d="M73.09 7.17 C84.78 1.99, 101.07 0.69, 115.08 0.36 C129.09 0.03, 144.03 1.38, 157.15 5.2 C170.27 9.02, 183.35 15.69, 193.77 23.28 C204.2 30.87, 213.36 40.88, 219.69 50.74 C226.02 60.6, 230.26 71.52, 231.75 82.42 C233.24 93.32, 232.21 105.7, 228.6 116.16 C224.99 126.62, 218.46 136.45, 210.08 145.18 C201.71 153.91, 190.25 162.49, 178.35 168.54 C166.46 174.59, 152.4 179.29, 138.73 181.48 C125.06 183.66, 110.03 183.7, 96.33 181.65 C82.63 179.59, 68.68 174.7, 56.51 169.16 C44.33 163.62, 31.73 156.99, 23.28 148.4 C14.83 139.82, 9.52 128.31, 5.79 117.65 C2.06 106.99, -0.14 95.57, 0.9 84.44 C1.93 73.31, 6.13 60.81, 12.02 50.87 C17.91 40.92, 25.3 32.28, 36.24 24.75 C47.17 17.23, 70.01 8.77, 77.65 5.72 C85.29 2.67, 81.62 5.02, 82.05 6.45 M77.12 5.27 C89.25 0.68, 104.37 0.96, 118.33 1.23 C132.3 1.49, 147.99 3.01, 160.9 6.85 C173.81 10.68, 185.77 16.48, 195.8 24.24 C205.82 32.01, 214.83 43.23, 221.06 53.44 C227.3 63.65, 232.16 74.95, 233.22 85.52 C234.28 96.09, 231.9 106.36, 227.43 116.88 C222.96 127.39, 215.3 139.61, 206.4 148.61 C197.5 157.61, 185.97 165.1, 174.04 170.88 C162.1 176.66, 148.33 181.43, 134.8 183.29 C121.26 185.14, 106.3 184.59, 92.83 182.02 C79.35 179.44, 65.82 174.03, 53.94 167.84 C42.07 161.66, 29.77 153.51, 21.57 144.92 C13.38 136.33, 8.47 126.73, 4.77 116.3 C1.06 105.86, -2.24 93.23, -0.67 82.31 C0.91 71.39, 7.75 60.63, 14.23 50.78 C20.72 40.93, 27.96 30.85, 38.24 23.21 C48.51 15.57, 69.52 7.51, 75.87 4.96 C82.22 2.4, 75.41 6.44, 76.33 7.87" stroke="#000000" stroke-width="1" fill="none"></path></g><g stroke-linecap="round"><g transform="translate(731.018200744735 121.11109161376953) rotate(0 17.687177036986782 41.04455719390418)"><path d="M0.3 0.82 C6.48 14.36, 30.45 68.56, 36.37 81.88 M-1 0.21 C5.15 13.35, 29.82 66.55, 35.85 80.16" stroke="#000000" stroke-width="1" fill="none"></path></g></g><mask></mask><g stroke-linecap="round"><g transform="translate(111.0181397095788 27.77777862548828) rotate(0 90.48664379366986 33.76588212777921)"><path d="M-0.38 1.14 C29.66 12.38, 151.06 55.95, 181.36 66.83 M1.62 0.7 C31.48 11.6, 150.93 53.7, 180.84 64.86" stroke="#000000" stroke-width="1" fill="none"></path></g><g transform="translate(111.0181397095788 27.77777862548828) rotate(0 90.48664379366986 33.76588212777921)"><path d="M152.75 66.31 C163.02 66.44, 174.02 63.06, 182.06 66 M151.12 65.75 C156.23 64.85, 162.47 64.69, 180.3 65.12" stroke="#000000" stroke-width="1" fill="none"></path></g><g transform="translate(111.0181397095788 27.77777862548828) rotate(0 90.48664379366986 33.76588212777921)"><path d="M159.73 47.01 C167.19 54.64, 175.47 58.77, 182.06 66 M158.09 46.45 C161.59 49.5, 166.39 53.3, 180.3 65.12" stroke="#000000" stroke-width="1" fill="none"></path></g></g><mask></mask><g stroke-linecap="round"><g transform="translate(9.90708624278193 84.44441986083984) rotate(0 145.99303730589673 31.135833795082846)"><path d="M1.02 -0.7 C49.24 9.7, 241.41 52.51, 289.59 62.98 M0.09 1.54 C48.67 11.58, 243.7 51.05, 291.89 61.37" stroke="#000000" stroke-width="1" fill="none"></path></g><g transform="translate(9.90708624278193 84.44441986083984) rotate(0 145.99303730589673 31.135833795082846)"><path d="M261.03 64.38 C273.41 63.64, 281.53 63.47, 292.8 59.55 M262.39 66.22 C273.55 65.27, 282.64 63.33, 292.25 60.99" stroke="#000000" stroke-width="1" fill="none"></path></g><g transform="translate(9.90708624278193 84.44441986083984) rotate(0 145.99303730589673 31.135833795082846)"><path d="M265.2 44.29 C276.32 50.07, 283.09 56.39, 292.8 59.55 M266.56 46.13 C276.07 52.14, 283.71 57.17, 292.25 60.99" stroke="#000000" stroke-width="1" fill="none"></path></g></g><mask></mask><g stroke-linecap="round"><g transform="translate(528.530395483291 57.09662532459714) rotate(0 84.93619482775335 -19.51811500074203)"><path d="M-1.07 0.39 C27.5 -5.95, 142.26 -31.21, 170.94 -37.54 M0.58 -0.46 C29.02 -7.21, 141.71 -32.88, 170 -39.42" stroke="#000000" stroke-width="1" fill="none"></path></g><g transform="translate(528.530395483291 57.09662532459714) rotate(0 84.93619482775335 -19.51811500074203)"><path d="M145.46 -23.09 C152.13 -27.03, 158.66 -30.09, 171.64 -38.79 M145.39 -23.41 C155.08 -28.43, 165.22 -35.9, 169.1 -40.35" stroke="#000000" stroke-width="1" fill="none"></path></g><g transform="translate(528.530395483291 57.09662532459714) rotate(0 84.93619482775335 -19.51811500074203)"><path d="M140.87 -43.1 C148.83 -41.74, 156.56 -39.55, 171.64 -38.79 M140.8 -43.42 C152.26 -40.65, 164.19 -40.34, 169.1 -40.35" stroke="#000000" stroke-width="1" fill="none"></path></g></g><mask></mask><g transform="translate(72.12928472911005 14.444427490234375) rotate(0 260.0000305175781 126.11111831665039)" stroke="none"><path fill="#000000" d="M 1.81,-0.72 Q 1.81,-0.72 2.45,0.86 3.10,2.46 4.56,5.06 6.01,7.66 6.74,9.02 7.47,10.37 8.13,11.99 8.79,13.61 9.58,15.54 10.36,17.46 11.30,19.19 12.24,20.93 13.04,22.32 13.85,23.71 15.00,25.14 16.14,26.57 17.10,27.92 18.06,29.26 18.83,30.47 19.61,31.68 20.69,33.37 21.77,35.07 21.66,36.56 21.54,38.05 21.09,39.73 20.64,41.40 20.36,44.77 20.09,48.13 19.26,52.01 18.43,55.89 18.07,59.94 17.71,63.98 17.53,67.63 17.34,71.27 17.25,74.10 17.16,76.93 17.22,78.46 17.28,79.98 17.32,81.59 17.36,83.19 17.40,84.82 17.43,86.46 17.66,88.63 17.90,90.80 19.21,94.50 20.53,98.19 23.30,104.25 26.08,110.32 30.08,116.34 34.08,122.37 39.28,129.42 44.49,136.47 50.83,143.59 57.16,150.71 62.40,156.30 67.65,161.89 71.79,166.18 75.94,170.48 79.27,173.56 82.61,176.65 84.45,179.36 86.30,182.08 87.17,183.56 88.04,185.05 87.89,186.78 87.74,188.52 86.61,189.31 85.48,190.10 83.43,190.83 81.38,191.56 77.40,191.90 73.43,192.24 68.92,192.34 64.42,192.45 58.99,192.48 53.56,192.51 47.75,192.51 41.93,192.51 36.94,192.82 31.96,193.13 26.64,193.58 21.33,194.02 16.15,194.21 10.98,194.40 7.19,194.48 3.39,194.55 1.47,194.63 -0.45,194.70 -0.62,194.69 -0.79,194.67 -0.95,194.61 -1.12,194.55 -1.26,194.46 -1.40,194.37 -1.52,194.24 -1.64,194.11 -1.72,193.96 -1.80,193.81 -1.85,193.65 -1.89,193.48 -1.90,193.31 -1.90,193.14 -1.86,192.97 -1.83,192.80 -1.75,192.64 -1.67,192.49 -1.56,192.36 -1.45,192.23 -1.31,192.13 -1.17,192.03 -1.01,191.96 -0.85,191.90 -0.68,191.87 -0.51,191.85 1.29,191.80 3.11,191.75 7.86,191.16 12.62,190.56 19.83,189.99 27.05,189.42 34.93,189.19 42.80,188.95 51.58,188.86 60.36,188.77 75.65,190.01 90.94,191.26 105.81,194.68 120.68,198.10 135.28,201.79 149.87,205.48 162.52,209.94 175.16,214.40 185.98,218.85 196.79,223.31 204.89,226.80 213.00,230.29 219.03,233.39 225.07,236.49 228.01,238.48 230.94,240.47 232.35,241.70 233.75,242.93 233.93,245.00 234.11,247.07 232.48,248.18 230.84,249.29 226.85,250.58 222.86,251.87 219.17,252.41 215.48,252.95 211.34,253.16 207.20,253.37 201.93,253.44 196.66,253.52 190.51,252.90 184.37,252.28 177.55,250.72 170.73,249.16 164.49,245.55 158.26,241.94 151.18,237.22 144.10,232.50 137.22,226.62 130.33,220.74 124.18,214.05 118.02,207.36 113.76,200.28 109.49,193.20 107.33,186.25 105.17,179.31 104.57,171.80 103.97,164.28 106.00,157.39 108.03,150.51 113.15,144.27 118.27,138.04 125.97,132.80 133.67,127.56 146.65,124.03 159.63,120.49 175.72,119.01 191.81,117.52 209.82,116.89 227.83,116.27 244.74,116.00 261.66,115.74 276.94,118.19 292.23,120.64 303.54,123.93 314.86,127.23 323.25,131.21 331.64,135.20 335.28,137.60 338.91,140.00 340.24,143.20 341.57,146.39 338.83,150.04 336.09,153.69 331.90,156.21 327.70,158.73 321.36,160.45 315.02,162.16 306.85,162.88 298.69,163.60 290.12,163.90 281.55,164.20 273.06,163.69 264.58,163.17 258.05,161.99 251.51,160.80 245.11,158.02 238.72,155.24 234.06,152.44 229.40,149.63 226.33,146.07 223.26,142.51 221.59,136.68 219.91,130.85 219.24,125.16 218.56,119.48 220.21,112.10 221.86,104.71 226.79,96.37 231.71,88.03 239.98,80.89 248.25,73.75 262.10,68.12 275.96,62.49 293.07,59.15 310.18,55.81 327.06,54.40 343.94,52.98 364.93,54.94 385.92,56.90 407.97,61.58 430.01,66.26 449.63,72.41 469.25,78.56 482.78,85.36 496.30,92.16 504.34,97.98 512.39,103.80 515.94,109.69 519.50,115.58 519.05,121.26 518.60,126.94 514.09,131.74 509.58,136.53 501.81,140.47 494.04,144.41 485.60,147.03 477.16,149.66 468.74,151.09 460.32,152.53 451.92,153.14 443.52,153.75 434.84,154.01 426.16,154.26 416.33,153.41 406.51,152.56 397.47,150.26 388.43,147.97 380.07,144.41 371.70,140.86 364.59,136.44 357.47,132.02 353.78,129.16 350.10,126.30 347.82,123.73 345.54,121.15 344.49,117.96 343.44,114.77 343.03,112.47 342.62,110.16 342.77,107.44 342.92,104.72 344.34,102.11 345.76,99.49 348.33,96.47 350.89,93.44 354.65,91.12 358.42,88.79 362.87,86.55 367.33,84.31 370.87,83.02 374.42,81.73 377.27,81.17 380.12,80.61 383.22,80.06 386.31,79.51 388.60,79.11 390.88,78.70 391.09,78.70 391.30,78.70 391.50,78.76 391.71,78.83 391.88,78.95 392.05,79.08 392.17,79.25 392.29,79.43 392.35,79.63 392.41,79.84 392.40,80.05 392.39,80.26 392.32,80.46 392.24,80.66 392.10,80.82 391.97,80.99 391.79,81.10 391.61,81.21 391.40,81.26 391.19,81.31 390.98,81.29 390.77,81.26 390.58,81.18 390.38,81.09 390.23,80.95 390.07,80.80 389.97,80.62 389.87,80.43 389.83,80.22 389.79,80.01 389.82,79.80 389.86,79.59 389.95,79.40 390.05,79.21 390.20,79.07 390.36,78.92 390.55,78.83 390.74,78.73 390.95,78.71 391.16,78.68 391.37,78.73 391.58,78.77 391.76,78.88 391.94,78.98 392.08,79.14 392.22,79.30 392.30,79.50 392.39,79.70 392.40,79.91 392.41,80.12 392.36,80.33 392.30,80.53 392.19,80.71 392.07,80.89 391.90,81.02 391.74,81.15 391.54,81.22 391.33,81.29 391.34,81.29 391.34,81.29 389.05,81.69 386.77,82.10 383.70,82.64 380.62,83.19 377.96,83.70 375.31,84.20 371.91,85.43 368.51,86.66 364.14,88.85 359.78,91.03 356.32,93.10 352.86,95.17 350.45,97.99 348.04,100.80 346.77,102.90 345.51,105.00 345.36,107.36 345.20,109.72 345.58,111.86 345.95,113.99 346.76,116.74 347.56,119.49 349.64,121.86 351.72,124.24 355.29,127.01 358.86,129.79 365.80,134.11 372.74,138.44 380.91,141.93 389.08,145.42 397.91,147.68 406.74,149.94 416.41,150.79 426.08,151.64 434.71,151.38 443.33,151.13 451.61,150.53 459.88,149.94 468.13,148.54 476.38,147.15 484.63,144.60 492.87,142.06 500.30,138.37 507.74,134.67 511.94,130.51 516.15,126.35 516.66,121.49 517.18,116.63 513.98,111.25 510.79,105.86 502.95,100.18 495.11,94.51 481.79,87.79 468.46,81.07 448.96,74.95 429.47,68.83 407.57,64.17 385.67,59.52 364.91,57.56 344.15,55.60 327.41,57.00 310.68,58.39 293.80,61.66 276.93,64.93 263.43,70.35 249.92,75.77 241.93,82.58 233.94,89.40 229.17,97.37 224.41,105.34 222.78,112.28 221.16,119.22 221.80,124.68 222.45,130.15 223.88,135.52 225.31,140.90 228.05,144.15 230.79,147.41 235.28,150.12 239.77,152.84 245.89,155.53 252.00,158.22 258.37,159.39 264.74,160.55 273.10,161.06 281.46,161.58 289.96,161.28 298.46,160.98 306.41,160.30 314.35,159.62 320.37,158.04 326.39,156.46 330.24,154.23 334.09,152.00 336.73,148.98 339.38,145.97 338.35,144.00 337.33,142.03 333.92,139.80 330.51,137.57 322.31,133.66 314.12,129.75 302.96,126.49 291.80,123.24 276.75,120.80 261.69,118.37 244.81,118.63 227.92,118.90 209.98,119.52 192.05,120.14 176.18,121.59 160.31,123.03 147.70,126.40 135.10,129.76 127.69,134.75 120.27,139.74 115.39,145.54 110.51,151.34 108.56,157.74 106.60,164.14 107.15,171.34 107.70,178.55 109.73,185.20 111.77,191.85 115.88,198.71 119.99,205.56 126.03,212.13 132.07,218.70 138.84,224.48 145.60,230.25 152.62,234.92 159.63,239.58 165.50,243.03 171.38,246.47 178.01,247.97 184.65,249.47 190.63,250.05 196.60,250.62 201.82,250.50 207.03,250.38 211.01,250.12 215.00,249.85 218.40,249.29 221.81,248.73 225.49,247.42 229.18,246.12 230.35,245.45 231.53,244.78 230.49,243.71 229.46,242.65 226.66,240.75 223.86,238.84 217.90,235.78 211.95,232.73 203.86,229.25 195.78,225.77 185.03,221.34 174.28,216.91 161.75,212.49 149.22,208.08 134.64,204.40 120.07,200.73 105.39,197.35 90.71,193.98 75.55,192.76 60.39,191.54 51.64,191.66 42.89,191.78 35.09,192.04 27.28,192.31 20.15,192.92 13.01,193.53 8.05,194.21 3.10,194.89 1.32,194.80 -0.45,194.70 -0.62,194.69 -0.79,194.67 -0.95,194.61 -1.12,194.55 -1.26,194.46 -1.40,194.37 -1.52,194.24 -1.64,194.11 -1.72,193.96 -1.80,193.81 -1.85,193.65 -1.89,193.48 -1.90,193.31 -1.90,193.14 -1.86,192.97 -1.83,192.80 -1.75,192.65 -1.67,192.49 -1.56,192.36 -1.45,192.23 -1.31,192.13 -1.17,192.03 -1.01,191.96 -0.85,191.90 -0.68,191.87 -0.51,191.85 1.41,191.85 3.33,191.86 7.10,191.77 10.88,191.68 15.98,191.48 21.09,191.27 26.43,190.80 31.78,190.32 36.85,189.97 41.91,189.63 47.72,189.57 53.53,189.52 58.92,189.43 64.31,189.33 68.72,189.15 73.13,188.96 76.61,188.61 80.10,188.27 82.70,187.28 85.30,186.29 84.69,184.93 84.08,183.57 82.43,181.09 80.77,178.61 77.38,175.49 73.99,172.37 69.82,168.07 65.65,163.77 60.36,158.17 55.07,152.57 48.64,145.37 42.20,138.17 36.92,131.09 31.63,124.00 27.47,117.81 23.30,111.61 20.40,105.46 17.50,99.30 16.00,95.30 14.49,91.29 14.09,88.87 13.68,86.46 13.72,84.81 13.77,83.16 13.83,81.55 13.89,79.93 14.00,78.40 14.11,76.87 14.12,74.02 14.14,71.16 14.21,67.45 14.29,63.73 14.53,59.47 14.78,55.20 15.37,51.56 15.97,47.93 16.04,44.12 16.12,40.32 16.73,37.96 17.35,35.60 16.74,34.64 16.13,33.68 15.53,32.51 14.93,31.34 14.17,30.08 13.40,28.83 11.99,27.16 10.58,25.49 9.88,24.09 9.18,22.69 8.07,20.87 6.96,19.05 5.95,17.10 4.93,15.16 4.36,13.71 3.79,12.26 3.12,10.89 2.46,9.52 1.55,7.89 0.64,6.26 0.04,5.09 -0.54,3.92 -1.18,2.32 -1.81,0.72 -1.87,0.49 -1.93,0.27 -1.94,0.03 -1.94,-0.20 -1.89,-0.43 -1.83,-0.66 -1.73,-0.87 -1.62,-1.08 -1.47,-1.26 -1.32,-1.43 -1.13,-1.57 -0.93,-1.71 -0.72,-1.80 -0.50,-1.88 -0.26,-1.92 -0.03,-1.95 0.19,-1.93 0.43,-1.90 0.65,-1.82 0.87,-1.74 1.07,-1.61 1.26,-1.48 1.42,-1.31 1.58,-1.13 1.70,-0.93 1.81,-0.72 1.81,-0.72 L 1.81,-0.72 Z"></path></g></svg>